<?xml version="1.0" encoding="UTF-8" standalone="no"?>
<!DOCTYPE svg PUBLIC "-//W3C//DTD SVG 1.1//EN"
 "http://www.w3.org/Graphics/SVG/1.1/DTD/svg11.dtd">
<!-- Generated by graphviz version 14.0.2 (20251019.1705)
 -->
<!-- Title: KnightRiderTop Pages: 1 -->
<svg width="598pt" height="770pt"
 viewBox="0.00 0.00 598.00 770.00" xmlns="http://www.w3.org/2000/svg" xmlns:xlink="http://www.w3.org/1999/xlink">
<g id="graph0" class="graph" transform="scale(1 1) rotate(0) translate(25.2 745.2)">
<title>KnightRiderTop</title>
<polygon fill="#ffffff" stroke="none" points="-25.2,25.2 -25.2,-745.2 572.7,-745.2 572.7,25.2 -25.2,25.2"/>
<g id="clust1" class="cluster">
<title>cluster_top</title>
<path fill="#ffffff" stroke="#2563eb" stroke-width="1.5" stroke-dasharray="5,2" d="M168.25,-66C168.25,-66 527.5,-66 527.5,-66 533.5,-66 539.5,-72 539.5,-78 539.5,-78 539.5,-700 539.5,-700 539.5,-706 533.5,-712 527.5,-712 527.5,-712 168.25,-712 168.25,-712 162.25,-712 156.25,-706 156.25,-700 156.25,-700 156.25,-78 156.25,-78 156.25,-72 162.25,-66 168.25,-66"/>
<text xml:space="preserve" text-anchor="start" x="201" y="-689.7" font-family="Helvetica,sans-Serif" font-size="14.00"> &#160;&#160;&#160;&#160;&#160;&#160;&#160;&#160;&#160;&#160;&#160;</text>
<text xml:space="preserve" text-anchor="start" x="246" y="-689.7" font-family="Helvetica,sans-Serif" font-weight="bold" font-size="14.00">top_knightrider</text>
<text xml:space="preserve" text-anchor="start" x="170.25" y="-675.7" font-family="Helvetica,sans-Serif" font-size="14.00"> &#160;&#160;&#160;&#160;&#160;&#160;&#160;&#160;&#160;&#160;&#160;</text>
<text xml:space="preserve" text-anchor="start" x="215.25" y="-675.7" font-family="Helvetica,sans-Serif" font-size="10.00">structural datapath overview</text>
<text xml:space="preserve" text-anchor="start" x="338.25" y="-675.7" font-family="Helvetica,sans-Serif" font-size="14.00"> &#160;&#160;&#160;&#160;&#160;&#160;&#160;&#160;&#160;</text>
</g>
<!-- counter -->
<g id="node1" class="node">
<title>counter</title>
<polygon fill="#dbeafe" stroke="none" points="179.75,-626.25 179.75,-651.75 295.25,-651.75 295.25,-626.25 179.75,-626.25"/>
<polygon fill="none" stroke="#2563eb" points="179.75,-626.25 179.75,-651.75 295.25,-651.75 295.25,-626.25 179.75,-626.25"/>
<text xml:space="preserve" text-anchor="start" x="190.25" y="-636.3" font-family="Helvetica,sans-Serif" font-weight="bold" font-size="11.00">updown_counter4</text>
<polygon fill="none" stroke="#2563eb" points="179.75,-603.75 179.75,-626.25 295.25,-626.25 295.25,-603.75 179.75,-603.75"/>
<text xml:space="preserve" text-anchor="start" x="185.75" y="-611.7" font-family="Helvetica,sans-Serif" font-size="9.00">async reset · sync enable</text>
<polygon fill="#f8fafc" stroke="none" points="179.75,-578.25 179.75,-603.75 233.75,-603.75 233.75,-578.25 179.75,-578.25"/>
<polygon fill="none" stroke="#2563eb" points="179.75,-578.25 179.75,-603.75 233.75,-603.75 233.75,-578.25 179.75,-578.25"/>
<text xml:space="preserve" text-anchor="start" x="193.25" y="-588.3" font-family="Helvetica,sans-Serif" font-weight="bold" font-size="11.00">input</text>
<polygon fill="#f8fafc" stroke="none" points="233.75,-578.25 233.75,-603.75 295.25,-603.75 295.25,-578.25 233.75,-578.25"/>
<polygon fill="none" stroke="#2563eb" points="233.75,-578.25 233.75,-603.75 295.25,-603.75 295.25,-578.25 233.75,-578.25"/>
<text xml:space="preserve" text-anchor="start" x="247.25" y="-588.3" font-family="Helvetica,sans-Serif" font-weight="bold" font-size="11.00">output</text>
<polygon fill="none" stroke="#2563eb" points="179.75,-552.75 179.75,-578.25 233.75,-578.25 233.75,-552.75 179.75,-552.75"/>
<text xml:space="preserve" text-anchor="start" x="185.75" y="-561.8" font-family="Helvetica,sans-Serif" font-size="11.00">clk</text>
<polygon fill="none" stroke="#2563eb" points="233.75,-552.75 233.75,-578.25 295.25,-578.25 295.25,-552.75 233.75,-552.75"/>
<text xml:space="preserve" text-anchor="start" x="239.75" y="-561.8" font-family="Helvetica,sans-Serif" font-size="11.00">q[3:0]</text>
<polygon fill="none" stroke="#2563eb" points="179.75,-527.25 179.75,-552.75 233.75,-552.75 233.75,-527.25 179.75,-527.25"/>
<text xml:space="preserve" text-anchor="start" x="185.75" y="-536.3" font-family="Helvetica,sans-Serif" font-size="11.00">arst</text>
<polygon fill="none" stroke="#2563eb" points="233.75,-527.25 233.75,-552.75 295.25,-552.75 295.25,-527.25 233.75,-527.25"/>
<polygon fill="none" stroke="#2563eb" points="179.75,-501.75 179.75,-527.25 233.75,-527.25 233.75,-501.75 179.75,-501.75"/>
<text xml:space="preserve" text-anchor="start" x="185.75" y="-510.8" font-family="Helvetica,sans-Serif" font-size="11.00">en</text>
<polygon fill="none" stroke="#2563eb" points="233.75,-501.75 233.75,-527.25 295.25,-527.25 295.25,-501.75 233.75,-501.75"/>
<polygon fill="none" stroke="#2563eb" points="179.75,-476.25 179.75,-501.75 233.75,-501.75 233.75,-476.25 179.75,-476.25"/>
<text xml:space="preserve" text-anchor="start" x="185.75" y="-485.3" font-family="Helvetica,sans-Serif" font-size="11.00">dir_in</text>
<polygon fill="none" stroke="#2563eb" points="233.75,-476.25 233.75,-501.75 295.25,-501.75 295.25,-476.25 233.75,-476.25"/>
</g>
<!-- boundary -->
<g id="node2" class="node">
<title>boundary</title>
<polygon fill="#dbeafe" stroke="none" points="172.25,-363.75 172.25,-389.25 302.75,-389.25 302.75,-363.75 172.25,-363.75"/>
<polygon fill="none" stroke="#2563eb" points="172.25,-363.75 172.25,-389.25 302.75,-389.25 302.75,-363.75 172.25,-363.75"/>
<text xml:space="preserve" text-anchor="start" x="203.38" y="-373.8" font-family="Helvetica,sans-Serif" font-weight="bold" font-size="11.00">position split</text>
<polygon fill="none" stroke="#2563eb" points="172.25,-341.25 172.25,-363.75 302.75,-363.75 302.75,-341.25 172.25,-341.25"/>
<text xml:space="preserve" text-anchor="start" x="178.25" y="-349.2" font-family="Helvetica,sans-Serif" font-size="9.00">extract pos and flags</text>
<polygon fill="#f8fafc" stroke="none" points="172.25,-315.75 172.25,-341.25 211.25,-341.25 211.25,-315.75 172.25,-315.75"/>
<polygon fill="none" stroke="#2563eb" points="172.25,-315.75 172.25,-341.25 211.25,-341.25 211.25,-315.75 172.25,-315.75"/>
<text xml:space="preserve" text-anchor="start" x="178.25" y="-325.8" font-family="Helvetica,sans-Serif" font-weight="bold" font-size="11.00">input</text>
<polygon fill="#f8fafc" stroke="none" points="211.25,-315.75 211.25,-341.25 302.75,-341.25 302.75,-315.75 211.25,-315.75"/>
<polygon fill="none" stroke="#2563eb" points="211.25,-315.75 211.25,-341.25 302.75,-341.25 302.75,-315.75 211.25,-315.75"/>
<text xml:space="preserve" text-anchor="start" x="239.75" y="-325.8" font-family="Helvetica,sans-Serif" font-weight="bold" font-size="11.00">output</text>
<polygon fill="none" stroke="#2563eb" points="172.25,-290.25 172.25,-315.75 211.25,-315.75 211.25,-290.25 172.25,-290.25"/>
<text xml:space="preserve" text-anchor="start" x="178.25" y="-299.3" font-family="Helvetica,sans-Serif" font-size="11.00">q[3:0]</text>
<polygon fill="none" stroke="#2563eb" points="211.25,-290.25 211.25,-315.75 302.75,-315.75 302.75,-290.25 211.25,-290.25"/>
<text xml:space="preserve" text-anchor="start" x="217.25" y="-299.3" font-family="Helvetica,sans-Serif" font-size="11.00">pos[2:0]</text>
<polygon fill="none" stroke="#2563eb" points="172.25,-264.75 172.25,-290.25 211.25,-290.25 211.25,-264.75 172.25,-264.75"/>
<polygon fill="none" stroke="#2563eb" points="211.25,-264.75 211.25,-290.25 302.75,-290.25 302.75,-264.75 211.25,-264.75"/>
<text xml:space="preserve" text-anchor="start" x="217.25" y="-273.8" font-family="Helvetica,sans-Serif" font-size="11.00">pos==0, pos==7</text>
</g>
<!-- counter&#45;&gt;boundary -->
<!-- counter&#45;&gt;boundary -->
<g id="edge9" class="edge">
<title>counter:count&#45;&gt;boundary:count</title>
<path fill="none" stroke="#334155" stroke-width="1.3" d="M215.5,-565.45C215.5,-565.45 215.5,-313.51 215.5,-313.51"/>
<polygon fill="#334155" stroke="#334155" stroke-width="1.3" points="218.48,-313.51 215.5,-305.01 212.53,-313.51 218.48,-313.51"/>
<text xml:space="preserve" text-anchor="start" x="190.75" y="-429.98" font-family="Helvetica,sans-Serif" font-size="10.00" fill="#1f2937">q[3:0]</text>
</g>
<!-- fsm -->
<g id="node3" class="node">
<title>fsm</title>
<polygon fill="#dbeafe" stroke="none" points="408.75,-295.75 408.75,-321.25 523.5,-321.25 523.5,-295.75 408.75,-295.75"/>
<polygon fill="none" stroke="#2563eb" points="408.75,-295.75 408.75,-321.25 523.5,-321.25 523.5,-295.75 408.75,-295.75"/>
<text xml:space="preserve" text-anchor="start" x="428.25" y="-305.8" font-family="Helvetica,sans-Serif" font-weight="bold" font-size="11.00">two_state_fsm</text>
<polygon fill="none" stroke="#2563eb" points="408.75,-262.75 408.75,-295.75 523.5,-295.75 523.5,-262.75 408.75,-262.75"/>
<text xml:space="preserve" text-anchor="start" x="414.75" y="-281.2" font-family="Helvetica,sans-Serif" font-size="9.00">RIGHT→LEFT @ pos==7</text>
<text xml:space="preserve" text-anchor="start" x="414.75" y="-270.7" font-family="Helvetica,sans-Serif" font-size="9.00">LEFT→RIGHT @ pos==0</text>
<polygon fill="#f8fafc" stroke="none" points="408.75,-237.25 408.75,-262.75 468,-262.75 468,-237.25 408.75,-237.25"/>
<polygon fill="none" stroke="#2563eb" points="408.75,-237.25 408.75,-262.75 468,-262.75 468,-237.25 408.75,-237.25"/>
<text xml:space="preserve" text-anchor="start" x="424.88" y="-247.3" font-family="Helvetica,sans-Serif" font-weight="bold" font-size="11.00">input</text>
<polygon fill="#f8fafc" stroke="none" points="468,-237.25 468,-262.75 523.5,-262.75 523.5,-237.25 468,-237.25"/>
<polygon fill="none" stroke="#2563eb" points="468,-237.25 468,-262.75 523.5,-262.75 523.5,-237.25 468,-237.25"/>
<text xml:space="preserve" text-anchor="start" x="478.5" y="-247.3" font-family="Helvetica,sans-Serif" font-weight="bold" font-size="11.00">output</text>
<polygon fill="none" stroke="#2563eb" points="408.75,-211.75 408.75,-237.25 468,-237.25 468,-211.75 408.75,-211.75"/>
<text xml:space="preserve" text-anchor="start" x="414.75" y="-220.8" font-family="Helvetica,sans-Serif" font-size="11.00">clk</text>
<polygon fill="none" stroke="#2563eb" points="468,-211.75 468,-237.25 523.5,-237.25 523.5,-211.75 468,-211.75"/>
<text xml:space="preserve" text-anchor="start" x="474" y="-220.8" font-family="Helvetica,sans-Serif" font-size="11.00">dir</text>
<polygon fill="none" stroke="#2563eb" points="408.75,-186.25 408.75,-211.75 468,-211.75 468,-186.25 408.75,-186.25"/>
<text xml:space="preserve" text-anchor="start" x="414.75" y="-195.3" font-family="Helvetica,sans-Serif" font-size="11.00">arst</text>
<polygon fill="none" stroke="#2563eb" points="468,-186.25 468,-211.75 523.5,-211.75 523.5,-186.25 468,-186.25"/>
<polygon fill="none" stroke="#2563eb" points="408.75,-160.75 408.75,-186.25 468,-186.25 468,-160.75 408.75,-160.75"/>
<text xml:space="preserve" text-anchor="start" x="414.75" y="-169.8" font-family="Helvetica,sans-Serif" font-size="11.00">pos[2:0]</text>
<polygon fill="none" stroke="#2563eb" points="468,-160.75 468,-186.25 523.5,-186.25 523.5,-160.75 468,-160.75"/>
</g>
<!-- boundary&#45;&gt;fsm -->
<g id="edge10" class="edge">
<title>boundary:pos&#45;&gt;fsm:pos</title>
<path fill="none" stroke="#334155" stroke-width="1.3" d="M257.13,-282.25C257.13,-282.25 427.78,-282.25 427.78,-282.25"/>
<polygon fill="#334155" stroke="#334155" stroke-width="1.3" points="427.78,-285.23 436.28,-282.25 427.78,-279.28 427.78,-285.23"/>
</g>
<!-- dirlogic -->
<g id="node4" class="node">
<title>dirlogic</title>
<polygon fill="#dbeafe" stroke="none" points="409.12,-550.5 409.12,-576 523.12,-576 523.12,-550.5 409.12,-550.5"/>
<polygon fill="none" stroke="#2563eb" points="409.12,-550.5 409.12,-576 523.12,-576 523.12,-550.5 409.12,-550.5"/>
<text xml:space="preserve" text-anchor="start" x="423.38" y="-560.55" font-family="Helvetica,sans-Serif" font-weight="bold" font-size="11.00">direction update</text>
<polygon fill="none" stroke="#2563eb" points="409.12,-528 409.12,-550.5 523.12,-550.5 523.12,-528 409.12,-528"/>
<text xml:space="preserve" text-anchor="start" x="415.12" y="-535.95" font-family="Helvetica,sans-Serif" font-size="9.00">handle boundary flips</text>
<polygon fill="#f8fafc" stroke="none" points="409.12,-502.5 409.12,-528 466.12,-528 466.12,-502.5 409.12,-502.5"/>
<polygon fill="none" stroke="#2563eb" points="409.12,-502.5 409.12,-528 466.12,-528 466.12,-502.5 409.12,-502.5"/>
<text xml:space="preserve" text-anchor="start" x="424.12" y="-512.55" font-family="Helvetica,sans-Serif" font-weight="bold" font-size="11.00">input</text>
<polygon fill="#f8fafc" stroke="none" points="466.12,-502.5 466.12,-528 523.12,-528 523.12,-502.5 466.12,-502.5"/>
<polygon fill="none" stroke="#2563eb" points="466.12,-502.5 466.12,-528 523.12,-528 523.12,-502.5 466.12,-502.5"/>
<text xml:space="preserve" text-anchor="start" x="477.38" y="-512.55" font-family="Helvetica,sans-Serif" font-weight="bold" font-size="11.00">output</text>
<polygon fill="none" stroke="#2563eb" points="409.12,-477 409.12,-502.5 466.12,-502.5 466.12,-477 409.12,-477"/>
<text xml:space="preserve" text-anchor="start" x="415.12" y="-486.05" font-family="Helvetica,sans-Serif" font-size="11.00">dir</text>
<polygon fill="none" stroke="#2563eb" points="466.12,-477 466.12,-502.5 523.12,-502.5 523.12,-477 466.12,-477"/>
<text xml:space="preserve" text-anchor="start" x="472.12" y="-486.05" font-family="Helvetica,sans-Serif" font-size="11.00">dir_next</text>
<polygon fill="none" stroke="#2563eb" points="409.12,-451.5 409.12,-477 466.12,-477 466.12,-451.5 409.12,-451.5"/>
<text xml:space="preserve" text-anchor="start" x="415.12" y="-460.55" font-family="Helvetica,sans-Serif" font-size="11.00">pos[2:0]</text>
<polygon fill="none" stroke="#2563eb" points="466.12,-451.5 466.12,-477 523.12,-477 523.12,-451.5 466.12,-451.5"/>
<polygon fill="none" stroke="#2563eb" points="409.12,-408 409.12,-451.5 523.12,-451.5 523.12,-408 409.12,-408"/>
<text xml:space="preserve" text-anchor="start" x="418.88" y="-436.95" font-family="Helvetica,sans-Serif" font-size="9.00">if dir==1 &amp; pos==7 =&gt; 0</text>
<text xml:space="preserve" text-anchor="start" x="415.12" y="-426.45" font-family="Helvetica,sans-Serif" font-size="9.00">elif dir==0 &amp; pos==0 =&gt; 1</text>
<text xml:space="preserve" text-anchor="start" x="441" y="-415.95" font-family="Helvetica,sans-Serif" font-size="9.00">else hold dir</text>
</g>
<!-- boundary&#45;&gt;dirlogic -->
<g id="edge11" class="edge">
<title>boundary:pos&#45;&gt;dirlogic:pos</title>
<path fill="none" stroke="#334155" stroke-width="1.3" d="M306.5,-303.08C306.5,-306.57 306.5,-418 306.5,-418 306.5,-418 427.06,-418 427.06,-418"/>
<polygon fill="#334155" stroke="#334155" stroke-width="1.3" points="427.06,-420.98 435.56,-418 427.06,-415.03 427.06,-420.98"/>
</g>
<!-- decoder -->
<g id="node5" class="node">
<title>decoder</title>
<polygon fill="#dbeafe" stroke="none" points="186.12,-152 186.12,-177.5 288.88,-177.5 288.88,-152 186.12,-152"/>
<polygon fill="none" stroke="#2563eb" points="186.12,-152 186.12,-177.5 288.88,-177.5 288.88,-152 186.12,-152"/>
<text xml:space="preserve" text-anchor="start" x="204.88" y="-162.05" font-family="Helvetica,sans-Serif" font-weight="bold" font-size="11.00">decoder3to8</text>
<polygon fill="none" stroke="#2563eb" points="186.12,-129.5 186.12,-152 288.88,-152 288.88,-129.5 186.12,-129.5"/>
<text xml:space="preserve" text-anchor="start" x="192.12" y="-137.45" font-family="Helvetica,sans-Serif" font-size="9.00">one&#45;hot decode</text>
<polygon fill="#f8fafc" stroke="none" points="186.12,-104 186.12,-129.5 236.38,-129.5 236.38,-104 186.12,-104"/>
<polygon fill="none" stroke="#2563eb" points="186.12,-104 186.12,-129.5 236.38,-129.5 236.38,-104 186.12,-104"/>
<text xml:space="preserve" text-anchor="start" x="197.75" y="-114.05" font-family="Helvetica,sans-Serif" font-weight="bold" font-size="11.00">input</text>
<polygon fill="#f8fafc" stroke="none" points="236.38,-104 236.38,-129.5 288.88,-129.5 288.88,-104 236.38,-104"/>
<polygon fill="none" stroke="#2563eb" points="236.38,-104 236.38,-129.5 288.88,-129.5 288.88,-104 236.38,-104"/>
<text xml:space="preserve" text-anchor="start" x="245.38" y="-114.05" font-family="Helvetica,sans-Serif" font-weight="bold" font-size="11.00">output</text>
<polygon fill="none" stroke="#2563eb" points="186.12,-78.5 186.12,-104 236.38,-104 236.38,-78.5 186.12,-78.5"/>
<text xml:space="preserve" text-anchor="start" x="192.12" y="-87.55" font-family="Helvetica,sans-Serif" font-size="11.00">pos[2:0]</text>
<polygon fill="none" stroke="#2563eb" points="236.38,-78.5 236.38,-104 288.88,-104 288.88,-78.5 236.38,-78.5"/>
<text xml:space="preserve" text-anchor="start" x="242.38" y="-87.55" font-family="Helvetica,sans-Serif" font-size="11.00">leds[7:0]</text>
</g>
<!-- boundary&#45;&gt;decoder -->
<!-- boundary&#45;&gt;decoder -->
<g id="edge12" class="edge">
<title>boundary:pos&#45;&gt;decoder:sel</title>
<path fill="none" stroke="#334155" stroke-width="1.3" d="M257.5,-290.39C257.5,-290.39 257.5,-101.83 257.5,-101.83"/>
<polygon fill="#334155" stroke="#334155" stroke-width="1.3" points="260.48,-101.83 257.5,-93.33 254.53,-101.83 260.48,-101.83"/>
</g>
<!-- fsm&#45;&gt;dirlogic -->
<!-- fsm&#45;&gt;dirlogic -->
<g id="edge13" class="edge">
<title>fsm:dir&#45;&gt;dirlogic:dir</title>
<path fill="none" stroke="#334155" stroke-width="1.3" d="M444.5,-224.55C444.5,-224.55 444.5,-466.68 444.5,-466.68"/>
<polygon fill="#334155" stroke="#334155" stroke-width="1.3" points="441.53,-466.68 444.5,-475.18 447.48,-466.68 441.53,-466.68"/>
<text xml:space="preserve" text-anchor="start" x="434" y="-336.11" font-family="Helvetica,sans-Serif" font-size="10.00" fill="#1f2937">dir</text>
</g>
<!-- dirlogic&#45;&gt;counter -->
<g id="edge14" class="edge">
<title>dirlogic:next&#45;&gt;counter:dir</title>
<path fill="none" stroke="#334155" stroke-width="1.3" d="M494.57,-526.12C494.57,-526.12 217.27,-526.12 217.27,-526.12"/>
<polygon fill="#334155" stroke="#334155" stroke-width="1.3" points="217.27,-523.15 208.77,-526.13 217.27,-529.1 217.27,-523.15"/>
<text xml:space="preserve" text-anchor="start" x="321.42" y="-516.62" font-family="Helvetica,sans-Serif" font-size="10.00" fill="#1f2937">dir_next</text>
</g>
<!-- leds_out -->
<g id="node9" class="node">
<title>leds_out</title>
<polygon fill="#dbeafe" stroke="none" points="438.62,-28.5 438.62,-52 493.62,-52 493.62,-28.5 438.62,-28.5"/>
<polygon fill="none" stroke="#2563eb" points="438.62,-28.5 438.62,-52 493.62,-52 493.62,-28.5 438.62,-28.5"/>
<text xml:space="preserve" text-anchor="start" x="443.62" y="-37.55" font-family="Helvetica,sans-Serif" font-weight="bold" font-size="11.00">leds[7:0]</text>
<polygon fill="none" stroke="#2563eb" points="438.62,-6 438.62,-26.5 493.62,-26.5 493.62,-6 438.62,-6"/>
<text xml:space="preserve" text-anchor="start" x="443.62" y="-12.95" font-family="Helvetica,sans-Serif" font-size="9.00">one&#45;hot</text>
</g>
<!-- decoder&#45;&gt;leds_out -->
<g id="edge15" class="edge">
<title>decoder:leds&#45;&gt;leds_out</title>
<path fill="none" stroke="#334155" stroke-width="1.3" d="M262.77,-115.62C268.95,-115.62 466.5,-115.62 466.5,-115.62 466.5,-115.62 466.5,-68.31 466.5,-68.31"/>
<polygon fill="#334155" stroke="#334155" stroke-width="1.3" points="469.48,-68.31 466.5,-59.81 463.53,-68.31 469.48,-68.31"/>
</g>
<!-- clk_in -->
<g id="node6" class="node">
<title>clk_in</title>
<polygon fill="#dbeafe" stroke="none" points="24.62,-654.25 24.62,-677.75 49.62,-677.75 49.62,-654.25 24.62,-654.25"/>
<polygon fill="none" stroke="#2563eb" points="24.62,-654.25 24.62,-677.75 49.62,-677.75 49.62,-654.25 24.62,-654.25"/>
<text xml:space="preserve" text-anchor="start" x="29.62" y="-663.3" font-family="Helvetica,sans-Serif" font-weight="bold" font-size="11.00">clk</text>
</g>
<!-- clk_in&#45;&gt;counter -->
<g id="edge4" class="edge">
<title>clk_in&#45;&gt;counter:clk</title>
<path fill="none" stroke="#334155" stroke-width="1.3" d="M64,-651.88C64,-651.88 196.21,-651.88 196.21,-651.88"/>
<polygon fill="#334155" stroke="#334155" stroke-width="1.3" points="196.21,-654.85 204.71,-651.88 196.21,-648.9 196.21,-654.85"/>
</g>
<!-- clk_in&#45;&gt;fsm -->
<g id="edge5" class="edge">
<title>clk_in&#45;&gt;fsm:clk</title>
<path fill="none" stroke="#334155" stroke-width="1.3" d="M64,-669.88C140.75,-669.88 355.5,-669.88 355.5,-669.88 355.5,-669.88 355.5,-303.75 355.5,-303.75 355.5,-303.75 427.85,-303.75 427.85,-303.75"/>
<polygon fill="#334155" stroke="#334155" stroke-width="1.3" points="427.85,-306.73 436.35,-303.75 427.85,-300.78 427.85,-306.73"/>
</g>
<!-- arst_in -->
<g id="node7" class="node">
<title>arst_in</title>
<polygon fill="#dbeafe" stroke="none" points="10,-539.5 10,-563 64.25,-563 64.25,-539.5 10,-539.5"/>
<polygon fill="none" stroke="#2563eb" points="10,-539.5 10,-563 64.25,-563 64.25,-539.5 10,-539.5"/>
<text xml:space="preserve" text-anchor="start" x="27" y="-548.55" font-family="Helvetica,sans-Serif" font-weight="bold" font-size="11.00">arst</text>
<polygon fill="none" stroke="#2563eb" points="10,-517 10,-537.5 64.25,-537.5 64.25,-517 10,-517"/>
<text xml:space="preserve" text-anchor="start" x="15" y="-523.95" font-family="Helvetica,sans-Serif" font-size="9.00">async high</text>
</g>
<!-- arst_in&#45;&gt;counter -->
<g id="edge6" class="edge">
<title>arst_in&#45;&gt;counter:arst</title>
<path fill="none" stroke="#334155" stroke-width="1.3" d="M73.93,-540C73.93,-540 169.53,-540 169.53,-540"/>
<polygon fill="#334155" stroke="#334155" stroke-width="1.3" points="169.53,-542.98 178.03,-540 169.53,-537.03 169.53,-542.98"/>
</g>
<!-- arst_in&#45;&gt;fsm -->
<g id="edge7" class="edge">
<title>arst_in&#45;&gt;fsm:arst</title>
<path fill="none" stroke="#334155" stroke-width="1.3" d="M69.5,-511.14C69.5,-432.65 69.5,-221.12 69.5,-221.12 69.5,-221.12 427.84,-221.12 427.84,-221.12"/>
<polygon fill="#334155" stroke="#334155" stroke-width="1.3" points="427.84,-224.1 436.34,-221.13 427.84,-218.15 427.84,-224.1"/>
</g>
<!-- en_in -->
<g id="node8" class="node">
<title>en_in</title>
<polygon fill="#dbeafe" stroke="none" points="25.75,-402.25 25.75,-425.75 48.5,-425.75 48.5,-402.25 25.75,-402.25"/>
<polygon fill="none" stroke="#2563eb" points="25.75,-402.25 25.75,-425.75 48.5,-425.75 48.5,-402.25 25.75,-402.25"/>
<text xml:space="preserve" text-anchor="start" x="30.75" y="-411.3" font-family="Helvetica,sans-Serif" font-weight="bold" font-size="11.00">en</text>
</g>
<!-- en_in&#45;&gt;counter -->
<g id="edge8" class="edge">
<title>en_in&#45;&gt;counter:en</title>
<path fill="none" stroke="#334155" stroke-width="1.3" d="M37.5,-431.61C37.5,-454.52 37.5,-491.62 37.5,-491.62 37.5,-491.62 196.16,-491.62 196.16,-491.62"/>
<polygon fill="#334155" stroke="#334155" stroke-width="1.3" points="196.16,-494.6 204.66,-491.63 196.16,-488.65 196.16,-494.6"/>
</g>
</g>
</svg>
